<?xml version="1.0" encoding="UTF-8" standalone="no"?>
<!-- Created with Inkscape (http://www.inkscape.org/) -->

<svg
   width="1028"
   height="1028"
   viewBox="0 0 271.99168 271.99168"
   version="1.1"
   id="svg1"
   xml:space="preserve"
   xmlns="http://www.w3.org/2000/svg"
   xmlns:svg="http://www.w3.org/2000/svg"><defs
     id="defs1" /><g
     id="layer1"><g
       id="path1"
       transform="translate(0.49905818,0.27495321)"><path
         d="M 112.78711,53.660428 90.739877,53.387116 c 0,0 -0.898322,-10.283391 0,-15.305521 0.791498,-4.42492 0.86549,-6.513957 4.674788,-12.649262 3.977819,-6.406726 11.772255,-13.357468 20.242235,-17.3923786 8.67768,-4.1338573 19.7406,-5.8390798 30.24093,-2.0071415 10.96099,4.0000481 28.21486,13.3324571 33.39542,33.6886591 3.20801,12.605385 1.67011,23.429905 2.0043,35.166258 0.39588,13.902955 0.012,27.81719 0,41.72577 -0.0304,35.28777 -0.0391,68.83759 -0.18221,105.86319 -0.0236,6.10791 -1.64681,8.52087 -5.7215,17.4077 -4.07469,8.88682 -11.1082,15.15283 -18.74001,21.3344 -4.49616,3.64177 -12.77705,6.32082 -20.80592,6.33125 -7.53875,0.01 -15.53244,-0.46207 -20.11381,-2.75901 -5.55553,-2.78534 -11.12689,-5.36461 -15.64453,-10.03036 C 95.212816,249.72403 89.804699,243.87572 89.737729,233.227 l -0.0911,-14.48559 21.865021,1e-5 c 0,0 -0.7486,9.48613 0.36442,14.03006 0.46187,1.88558 0.37857,-0.0999 2.55662,5.2328 1.92781,4.72003 5.48326,5.29607 9.63572,7.11964 4.30468,1.89042 8.96118,1.06913 14.96991,0.56795 3.10609,-0.25908 5.63276,-1.19041 8.67265,-3.43884 3.03989,-2.24842 5.41576,-5.53779 8.61752,-11.26591 2.33311,-4.17406 3.14458,-48.54514 3.07801,-92.4214 -0.0667,-43.967251 -0.3234,-57.561706 -0.3384,-86.818482 -0.002,-3.346678 0.3986,-5.534577 -1.10749,-9.978766 -1.74784,-5.157569 -6.23625,-11.211777 -11.62434,-13.457814 -6.45662,-2.691457 -14.16102,-2.966584 -20.19953,-1.602866 -3.03183,0.6847 -7.47388,2.355183 -11.01562,6.889402 -3.25543,4.167677 -2.33401,20.063234 -2.33401,20.063234 z"
         id="path6" /><path
         d="M 130.08398,3.9179688 C 124.90377,4.3834614 119.95178,5.8466432 115.59961,7.9199219 107.10482,11.966649 99.298786,18.92719 95.302734,25.363281 91.476039,31.526607 90.609375,38.064453 90.609375,38.064453 l -0.002,0.0078 v 15.445312 l 22.320305,0.277344 -0.008,-0.142578 c 0,0 -0.23096,-3.967795 -0.0547,-8.455078 0.0881,-2.243642 0.27874,-4.61684 0.64844,-6.683594 0.36971,-2.066754 0.92406,-3.828554 1.71094,-4.835938 3.51841,-4.504352 7.92759,-6.161165 10.94141,-6.841797 6.01119,-1.357549 13.69406,-1.080652 20.11914,1.597657 5.33424,2.223592 9.81495,8.254775 11.55078,13.376953 1.49311,4.40584 1.09961,9.927734 1.09961,9.927734 v 0.0059 0.0039 c 0,0 0.45338,42.941399 0.33789,86.816402 -0.0577,21.93751 -0.25626,44.1099 -0.72657,61.26172 -0.23515,8.57592 -0.53777,15.89647 -0.92382,21.30469 -0.19303,2.70411 -0.40835,4.93056 -0.64453,6.59375 -0.23619,1.66319 -0.50881,2.77538 -0.76368,3.19336 l -0.002,0.004 -0.002,0.002 c -3.09336,5.7773 -5.55932,8.98982 -8.57813,11.22265 -3.02575,2.23798 -5.51962,3.15668 -8.60547,3.41407 -6.01501,0.5017 -10.64664,1.31203 -14.90625,-0.5586 -2.08426,-0.91531 -4.00784,-1.51538 -5.63867,-2.46679 -1.63082,-0.95142 -2.97388,-2.24468 -3.92773,-4.58008 -1.09015,-2.6691 -1.72907,-3.98141 -2.10156,-4.63281 -0.18625,-0.32571 -0.3044,-0.48664 -0.38672,-0.57422 -0.0231,-0.0245 -0.0412,-0.0337 -0.0606,-0.0488 l -0.36523,-14.08985 H 89.513672 l 0.0918,14.63086 0.002,0.0117 c 2.030594,10.47239 5.494858,16.54932 10.386719,21.60157 4.538499,4.68729 10.128539,7.27251 15.681639,10.05664 4.62999,2.32131 12.62748,2.78149 20.17188,2.77148 8.05818,-0.0103 16.35543,-2.68757 20.88867,-6.35937 7.63489,-6.18407 14.68843,-12.46498 18.77734,-21.38282 4.08242,-8.90367 5.73242,-17.4375 5.73242,-17.4375 l 0.002,-0.0117 0.18164,-105.87695 v -41.722654 -0.002 c 8e-5,-0.0034 0.55142,-22.406946 -2.00586,-35.19336 l -0.002,-0.0059 -0.002,-0.0039 C 173.57373,19.45225 156.92736,9.9166486 145.94336,5.9082031 140.6732,3.9849381 135.2642,3.4524761 130.08398,3.9179688 Z m 0.0215,0.2636718 c 5.14575,-0.4625983 10.51592,0.065936 15.74609,1.9746094 10.93753,3.991484 27.49668,13.475431 33.3125,33.599609 2.5e-4,8.4e-4 0.002,0.0011 0.002,0.002 2.54238,12.723325 2,35.126954 2,35.126954 v 0.002 41.726557 l -0.1836,105.85352 c -0.005,0.0247 -1.64794,8.50622 -5.70898,17.36328 -4.06047,8.85581 -11.0744,15.10608 -18.70313,21.28515 -4.45908,3.61174 -12.7231,6.29256 -20.72265,6.30274 -7.53311,0.01 -15.52194,-0.47353 -20.05469,-2.7461 -5.55796,-2.78655 -11.11064,-5.3597 -15.60742,-10.0039 -4.860305,-5.01965 -8.292642,-11.02827 -10.316409,-21.45899 l -0.08984,-14.33593 h 21.603509 l 0.36524,14.06836 0.10742,-0.0293 c 0.007,0.005 0.004,0.003 0.0176,0.0176 0.0567,0.0603 0.16896,0.20753 0.34961,0.52343 0.36129,0.63182 0.99999,1.93797 2.08789,4.60157 0.97395,2.38462 2.37209,3.73648 4.03906,4.70898 1.66697,0.9725 3.59782,1.57221 5.66602,2.48047 4.34975,1.91022 9.03076,1.08073 15.0332,0.58008 3.12634,-0.26077 5.68621,-1.20596 8.74023,-3.46485 3.05935,-2.26281 5.55289,-5.51552 8.65235,-11.30273 v -0.002 c 0.31428,-0.51621 0.56128,-1.62021 0.79882,-3.29297 0.23768,-1.6737 0.45321,-3.90366 0.64649,-6.61133 0.38656,-5.41533 0.68862,-12.74035 0.92383,-21.31836 0.47042,-17.15601 0.67076,-39.32697 0.72851,-61.26562 0.11551,-43.877286 -0.33789,-86.820312 -0.33789,-86.820312 l -0.002,0.0098 c 0,0 0.40582,-5.546774 -1.11328,-10.029297 -1.75982,-5.192975 -6.25729,-11.268627 -11.69922,-13.537109 -6.48816,-2.704605 -14.21347,-2.981215 -20.2793,-1.611328 -3.04984,0.688769 -7.52477,2.373414 -11.08984,6.9375 -0.84084,1.076455 -1.39251,2.86535 -1.76563,4.951172 -0.37311,2.085822 -0.56195,4.467543 -0.65039,6.71875 -0.1739,4.426737 0.0453,8.209288 0.0527,8.339844 L 90.873047,53.255859 V 38.091797 c 0.0017,-0.01269 0.866109,-6.48854 4.654297,-12.589844 C 99.48693,19.124592 107.26772,12.18325 115.71289,8.1601563 120.0384,6.0995776 124.95972,4.644239 130.10547,4.1816406 Z"
         id="path7" /></g></g></svg>
